<?xml version="1.0" encoding="UTF-8" standalone="no"?>
<!-- Generator: Adobe Illustrator 17.0.1, SVG Export Plug-In . SVG Version: 6.00 Build 0)  -->

<svg
   xmlns:dc="http://purl.org/dc/elements/1.1/"
   xmlns:cc="http://creativecommons.org/ns#"
   xmlns:rdf="http://www.w3.org/1999/02/22-rdf-syntax-ns#"
   xmlns:svg="http://www.w3.org/2000/svg"
   xmlns="http://www.w3.org/2000/svg"
   xmlns:sodipodi="http://sodipodi.sourceforge.net/DTD/sodipodi-0.dtd"
   xmlns:inkscape="http://www.inkscape.org/namespaces/inkscape"
   version="1.1"
   id="Layer_1"
   x="0px"
   y="0px"
   width="64px"
   height="64px"
   viewBox="0 0 64 64"
   style="enable-background:new 0 0 64 64;"
   xml:space="preserve"
   inkscape:version="0.48.4 r9939"
   sodipodi:docname="icon-m-speaker-mute.svg"><metadata
     id="metadata15"><rdf:RDF><cc:Work
         rdf:about=""><dc:format>image/svg+xml</dc:format><dc:type
           rdf:resource="http://purl.org/dc/dcmitype/StillImage" /></cc:Work></rdf:RDF></metadata><defs
     id="defs13" /><sodipodi:namedview
     pagecolor="#ffffff"
     bordercolor="#666666"
     borderopacity="1"
     objecttolerance="10"
     gridtolerance="10"
     guidetolerance="10"
     inkscape:pageopacity="0"
     inkscape:pageshadow="2"
     inkscape:window-width="1215"
     inkscape:window-height="776"
     id="namedview11"
     showgrid="false"
     inkscape:zoom="3.6875"
     inkscape:cx="32"
     inkscape:cy="32"
     inkscape:window-x="65"
     inkscape:window-y="24"
     inkscape:window-maximized="1"
     inkscape:current-layer="Layer_1" /><rect
     y="0"
     x="0"
     height="64"
     width="64"
     style="opacity:1;fill:#000000;fill-opacity:0.50196081000000004"
     id="icon-m-speaker-mute_1_" /><path
     style="opacity:0.6;fill:#ffffff"
     d="m 44.494,55 c -0.248,0 -0.493,-0.093 -0.683,-0.27 L 30.599,42.393 h -6.617 c -3.07,0 -5.476,-2.699 -5.476,-6.145 v -8.516 c 0,-3.446 2.405,-6.145 5.476,-6.145 h 6.617 L 43.813,9.269 c 0.291,-0.272 0.716,-0.344 1.08,-0.186 0.365,0.159 0.602,0.519 0.602,0.917 v 44 c 0,0.398 -0.236,0.759 -0.602,0.917 C 44.765,54.973 44.629,55 44.494,55 z M 23.981,23.587 c -2.176,0 -3.476,2.107 -3.476,4.145 v 8.516 c 0,2.037 1.3,4.145 3.476,4.145 h 7.012 c 0.253,0 0.498,0.097 0.683,0.27 l 11.818,11.036 v -39.4 l -11.819,11.02 c -0.186,0.172 -0.429,0.269 -0.682,0.269 h -7.012 z"
     id="path7"
     inkscape:connector-curvature="0" /><path
     style="fill:#ffffff"
     d="m 6.934,58.067 c -0.256,0 -0.512,-0.098 -0.707,-0.293 -0.391,-0.391 -0.391,-1.023 0,-1.414 L 56.359,6.226 c 0.391,-0.391 1.023,-0.391 1.414,0 0.391,0.391 0.391,1.023 0,1.414 L 7.641,57.774 C 7.445,57.97 7.189,58.067 6.934,58.067 z"
     id="path9"
     inkscape:connector-curvature="0" /></svg>