<?xml version="1.0" encoding="UTF-8" standalone="no"?>
<!-- Generator: Adobe Illustrator 17.0.1, SVG Export Plug-In . SVG Version: 6.00 Build 0)  -->

<svg
   xmlns:dc="http://purl.org/dc/elements/1.1/"
   xmlns:cc="http://creativecommons.org/ns#"
   xmlns:rdf="http://www.w3.org/1999/02/22-rdf-syntax-ns#"
   xmlns:svg="http://www.w3.org/2000/svg"
   xmlns="http://www.w3.org/2000/svg"
   xmlns:sodipodi="http://sodipodi.sourceforge.net/DTD/sodipodi-0.dtd"
   xmlns:inkscape="http://www.inkscape.org/namespaces/inkscape"
   version="1.1"
   id="Layer_1"
   x="0px"
   y="0px"
   width="64px"
   height="64px"
   viewBox="0 0 64 64"
   style="enable-background:new 0 0 64 64;"
   xml:space="preserve"
   inkscape:version="0.48.4 r9939"
   sodipodi:docname="icon-m-backup.svg"><metadata
     id="metadata15"><rdf:RDF><cc:Work
         rdf:about=""><dc:format>image/svg+xml</dc:format><dc:type
           rdf:resource="http://purl.org/dc/dcmitype/StillImage" /></cc:Work></rdf:RDF></metadata><defs
     id="defs13" /><sodipodi:namedview
     pagecolor="#ffffff"
     bordercolor="#666666"
     borderopacity="1"
     objecttolerance="10"
     gridtolerance="10"
     guidetolerance="10"
     inkscape:pageopacity="0"
     inkscape:pageshadow="2"
     inkscape:window-width="1215"
     inkscape:window-height="776"
     id="namedview11"
     showgrid="false"
     inkscape:zoom="3.6875"
     inkscape:cx="-143.72881"
     inkscape:cy="32"
     inkscape:window-x="65"
     inkscape:window-y="24"
     inkscape:window-maximized="1"
     inkscape:current-layer="Layer_1" /><rect
     y="0"
     x="0"
     height="64"
     width="64"
     style="opacity:1;fill:#000000;fill-opacity:0.50196081000000004"
     id="icon-m-backup_1_" /><path
     inkscape:connector-curvature="0"
     id="path5"
     d="M 48,34 H 32 c -0.552,0 -1,-0.447 -1,-1 V 15 c 0,-0.552 0.448,-1 1,-1 0.552,0 1,0.448 1,1 v 17 h 15 c 0.553,0 1,0.448 1,1 0,0.553 -0.447,1 -1,1 z"
     style="fill:#ffffff" /><path
     style="opacity:0.6;fill:#ffffff"
     d="m 32.401,56.482 c -5.153,0 -10.083,-1.582 -14.256,-4.576 -0.449,-0.322 -0.551,-0.946 -0.229,-1.396 0.321,-0.449 0.945,-0.553 1.396,-0.229 3.831,2.748 8.357,4.201 13.09,4.201 C 44.798,54.482 54.884,44.396 54.884,32 54.884,19.603 44.798,9.518 32.402,9.518 20.004,9.518 9.919,19.603 9.919,32 h 7.731 c 0.325,0 0.63,0.158 0.817,0.424 0.188,0.266 0.234,0.606 0.124,0.913 l -4.65,13 c -0.122,0.341 -0.418,0.589 -0.775,0.649 -0.358,0.057 -0.718,-0.077 -0.945,-0.36 C 8.43,41.91 7.919,36.586 7.919,32 7.919,18.5 18.902,7.518 32.401,7.518 45.901,7.518 56.883,18.501 56.883,32 56.884,45.5 45.901,56.482 32.401,56.482 z M 9.963,34 c 0.194,4.161 1.038,7.214 2.735,9.873 L 16.23,34 H 9.963 z"
     id="path9"
     inkscape:connector-curvature="0" /></svg>