<?xml version="1.0" encoding="UTF-8" standalone="no"?>
<!-- Generator: Adobe Illustrator 17.0.1, SVG Export Plug-In . SVG Version: 6.00 Build 0)  -->

<svg
   xmlns:dc="http://purl.org/dc/elements/1.1/"
   xmlns:cc="http://creativecommons.org/ns#"
   xmlns:rdf="http://www.w3.org/1999/02/22-rdf-syntax-ns#"
   xmlns:svg="http://www.w3.org/2000/svg"
   xmlns="http://www.w3.org/2000/svg"
   xmlns:sodipodi="http://sodipodi.sourceforge.net/DTD/sodipodi-0.dtd"
   xmlns:inkscape="http://www.inkscape.org/namespaces/inkscape"
   version="1.1"
   id="Layer_1"
   x="0px"
   y="0px"
   width="64px"
   height="64px"
   viewBox="0 0 64 64"
   style="enable-background:new 0 0 64 64;"
   xml:space="preserve"
   inkscape:version="0.48.4 r9939"
   sodipodi:docname="icon-m-speaker.svg"><metadata
     id="metadata17"><rdf:RDF><cc:Work
         rdf:about=""><dc:format>image/svg+xml</dc:format><dc:type
           rdf:resource="http://purl.org/dc/dcmitype/StillImage" /></cc:Work></rdf:RDF></metadata><defs
     id="defs15" /><sodipodi:namedview
     pagecolor="#ffffff"
     bordercolor="#666666"
     borderopacity="1"
     objecttolerance="10"
     gridtolerance="10"
     guidetolerance="10"
     inkscape:pageopacity="0"
     inkscape:pageshadow="2"
     inkscape:window-width="1215"
     inkscape:window-height="776"
     id="namedview13"
     showgrid="false"
     inkscape:zoom="3.6875"
     inkscape:cx="32"
     inkscape:cy="32"
     inkscape:window-x="65"
     inkscape:window-y="24"
     inkscape:window-maximized="1"
     inkscape:current-layer="Layer_1" /><rect
     y="0"
     x="0"
     height="64"
     width="64"
     style="opacity:1;fill:#000000;fill-opacity:0.50196081000000004"
     id="icon-m-speaker_1_" /><path
     inkscape:connector-curvature="0"
     id="path5"
     d="m 32.761,54.999 c -0.249,0 -0.494,-0.093 -0.683,-0.27 L 18.865,42.392 h -6.617 c -3.07,0 -5.476,-2.699 -5.476,-6.145 v -8.515 c 0,-3.446 2.405,-6.146 5.476,-6.146 h 6.617 L 32.079,9.268 c 0.292,-0.272 0.717,-0.344 1.081,-0.186 0.365,0.159 0.602,0.519 0.602,0.917 v 44 c 0,0.398 -0.236,0.759 -0.602,0.917 -0.129,0.056 -0.264,0.083 -0.399,0.083 z M 12.248,23.586 c -2.176,0 -3.476,2.108 -3.476,4.146 v 8.515 c 0,2.037 1.3,4.145 3.476,4.145 h 7.012 c 0.253,0 0.498,0.097 0.683,0.27 L 31.761,51.698 V 12.299 l -11.82,11.019 c -0.186,0.172 -0.429,0.269 -0.682,0.269 h -7.011 z"
     style="fill:#ffffff" /><path
     inkscape:connector-curvature="0"
     id="path7"
     d="m 42.925,46.312 c -0.279,0 -0.558,-0.117 -0.756,-0.345 -0.361,-0.418 -0.316,-1.049 0.101,-1.411 3.662,-3.174 5.762,-7.75 5.762,-12.556 0,-4.806 -2.1,-9.382 -5.761,-12.557 -0.417,-0.362 -0.462,-0.993 -0.101,-1.411 0.363,-0.418 0.993,-0.462 1.411,-0.1 4.099,3.554 6.45,8.682 6.45,14.067 0,5.385 -2.351,10.515 -6.451,14.068 -0.189,0.164 -0.423,0.245 -0.655,0.245 z"
     style="opacity:0.6;fill:#ffffff" /><path
     inkscape:connector-curvature="0"
     id="path9"
     d="m 38.395,41.779 c -0.294,0 -0.585,-0.129 -0.782,-0.376 -0.345,-0.432 -0.274,-1.062 0.157,-1.405 2.454,-1.958 3.861,-4.873 3.861,-7.998 0,-3.125 -1.407,-6.041 -3.861,-7.998 -0.432,-0.344 -0.502,-0.974 -0.157,-1.405 0.345,-0.431 0.973,-0.502 1.405,-0.158 2.932,2.339 4.613,5.824 4.613,9.562 0,3.738 -1.682,7.222 -4.613,9.561 -0.185,0.146 -0.405,0.217 -0.623,0.217 z"
     style="opacity:0.6;fill:#ffffff" /><path
     inkscape:connector-curvature="0"
     id="path11"
     d="m 48.979,52.363 c -0.271,0 -0.543,-0.11 -0.74,-0.327 -0.371,-0.409 -0.341,-1.042 0.067,-1.413 5.249,-4.768 8.259,-11.556 8.259,-18.623 0,-7.067 -3.01,-13.855 -8.259,-18.624 -0.408,-0.372 -0.438,-1.004 -0.067,-1.413 0.372,-0.409 1.004,-0.438 1.413,-0.068 5.664,5.147 8.913,12.475 8.913,20.104 0,7.63 -3.249,14.957 -8.913,20.104 -0.193,0.174 -0.433,0.26 -0.673,0.26 z"
     style="opacity:0.6;fill:#ffffff" /></svg>