<?xml version="1.0" encoding="UTF-8" standalone="no"?>
<!-- Generator: Adobe Illustrator 17.0.1, SVG Export Plug-In . SVG Version: 6.00 Build 0)  -->

<svg
   xmlns:dc="http://purl.org/dc/elements/1.1/"
   xmlns:cc="http://creativecommons.org/ns#"
   xmlns:rdf="http://www.w3.org/1999/02/22-rdf-syntax-ns#"
   xmlns:svg="http://www.w3.org/2000/svg"
   xmlns="http://www.w3.org/2000/svg"
   xmlns:sodipodi="http://sodipodi.sourceforge.net/DTD/sodipodi-0.dtd"
   xmlns:inkscape="http://www.inkscape.org/namespaces/inkscape"
   version="1.1"
   id="Layer_1"
   x="0px"
   y="0px"
   width="64px"
   height="64px"
   viewBox="0 0 64 64"
   style="enable-background:new 0 0 64 64;"
   xml:space="preserve"
   inkscape:version="0.48.4 r9939"
   sodipodi:docname="icon-m-sync.svg"><metadata
     id="metadata15"><rdf:RDF><cc:Work
         rdf:about=""><dc:format>image/svg+xml</dc:format><dc:type
           rdf:resource="http://purl.org/dc/dcmitype/StillImage" /></cc:Work></rdf:RDF></metadata><defs
     id="defs13" /><sodipodi:namedview
     pagecolor="#ffffff"
     bordercolor="#666666"
     borderopacity="1"
     objecttolerance="10"
     gridtolerance="10"
     guidetolerance="10"
     inkscape:pageopacity="0"
     inkscape:pageshadow="2"
     inkscape:window-width="1215"
     inkscape:window-height="776"
     id="namedview11"
     showgrid="false"
     inkscape:zoom="3.6875"
     inkscape:cx="32"
     inkscape:cy="32"
     inkscape:window-x="65"
     inkscape:window-y="24"
     inkscape:window-maximized="1"
     inkscape:current-layer="Layer_1" /><rect
     y="0"
     x="0"
     height="64"
     width="64"
     style="opacity:1;fill:#000000;fill-opacity:0.50196081000000004"
     id="icon-m-sync_1_" /><path
     style="opacity:0.6;fill:#ffffff"
     d="m 32,56.5 c -1.258,0 -2.523,-0.097 -3.79,-0.292 C 21.748,55.21 16.065,51.754 12.21,46.479 8.352,41.199 6.785,34.729 7.798,28.26 7.854,27.904 8.096,27.606 8.433,27.479 8.77,27.353 9.15,27.416 9.426,27.647 l 10.808,9.019 c 0.25,0.209 0.383,0.526 0.356,0.851 -0.027,0.325 -0.211,0.616 -0.493,0.78 l -7.827,4.568 c 0.462,0.837 0.98,1.649 1.553,2.434 3.54,4.845 8.757,8.017 14.691,8.934 5.938,0.918 11.881,-0.534 16.735,-4.085 0.448,-0.327 1.072,-0.229 1.397,0.216 0.326,0.446 0.229,1.072 -0.216,1.397 C 42.183,54.869 37.164,56.5 32,56.5 z M 9.565,30.366 c -0.284,3.698 0.344,7.354 1.818,10.701 l 6.477,-3.78 -8.295,-6.921 z"
     id="path7"
     inkscape:connector-curvature="0" /><path
     style="fill:#ffffff"
     d="m 55.214,36.586 c -0.232,0 -0.462,-0.081 -0.646,-0.236 L 43.949,27.37 c -0.246,-0.208 -0.377,-0.521 -0.352,-0.842 0.025,-0.321 0.203,-0.61 0.479,-0.776 l 7.642,-4.633 c -0.46,-0.83 -0.975,-1.637 -1.543,-2.416 -3.54,-4.843 -8.757,-8.016 -14.69,-8.932 -5.936,-0.918 -11.88,0.533 -16.736,4.084 -0.447,0.327 -1.072,0.229 -1.397,-0.217 -0.326,-0.446 -0.229,-1.072 0.217,-1.397 5.288,-3.866 11.76,-5.444 18.222,-4.446 6.463,0.999 12.145,4.453 16,9.729 0.803,1.099 1.507,2.25 2.109,3.441 0,0 0,0.001 0.001,0.001 0.028,0.048 0.053,0.097 0.073,0.147 2.233,4.496 3.022,9.563 2.229,14.629 -0.057,0.357 -0.301,0.656 -0.639,0.783 -0.115,0.04 -0.233,0.061 -0.35,0.061 z m -8.912,-9.846 8.135,6.879 c 0.281,-3.7 -0.349,-7.356 -1.827,-10.704 l -6.308,3.825 z"
     id="path9"
     inkscape:connector-curvature="0" /></svg>