<?xml version="1.0" encoding="UTF-8" standalone="no"?>
<!-- Generator: Adobe Illustrator 17.0.1, SVG Export Plug-In . SVG Version: 6.00 Build 0)  -->

<svg
   xmlns:dc="http://purl.org/dc/elements/1.1/"
   xmlns:cc="http://creativecommons.org/ns#"
   xmlns:rdf="http://www.w3.org/1999/02/22-rdf-syntax-ns#"
   xmlns:svg="http://www.w3.org/2000/svg"
   xmlns="http://www.w3.org/2000/svg"
   xmlns:sodipodi="http://sodipodi.sourceforge.net/DTD/sodipodi-0.dtd"
   xmlns:inkscape="http://www.inkscape.org/namespaces/inkscape"
   version="1.1"
   id="Layer_1"
   x="0px"
   y="0px"
   width="64px"
   height="64px"
   viewBox="0 0 64 64"
   style="enable-background:new 0 0 64 64;"
   xml:space="preserve"
   inkscape:version="0.48.4 r9939"
   sodipodi:docname="icon-m-add.svg"><metadata
     id="metadata19"><rdf:RDF><cc:Work
         rdf:about=""><dc:format>image/svg+xml</dc:format><dc:type
           rdf:resource="http://purl.org/dc/dcmitype/StillImage" /></cc:Work></rdf:RDF></metadata><defs
     id="defs17" /><sodipodi:namedview
     pagecolor="#ffffff"
     bordercolor="#666666"
     borderopacity="1"
     objecttolerance="10"
     gridtolerance="10"
     guidetolerance="10"
     inkscape:pageopacity="0"
     inkscape:pageshadow="2"
     inkscape:window-width="1215"
     inkscape:window-height="776"
     id="namedview15"
     showgrid="false"
     inkscape:zoom="3.6875"
     inkscape:cx="-26.576271"
     inkscape:cy="32"
     inkscape:window-x="65"
     inkscape:window-y="24"
     inkscape:window-maximized="1"
     inkscape:current-layer="Layer_1" /><rect
     y="0"
     x="0"
     height="64"
     width="64"
     style="opacity:0.1;fill:#ffffff"
     id="icon-m-add_3_" /><circle
     style="opacity:0.2;fill:#000000"
     cx="32"
     cy="32"
     r="24"
     id="circle7"
     sodipodi:cx="32"
     sodipodi:cy="32"
     sodipodi:rx="24"
     sodipodi:ry="24" /><path
     inkscape:connector-curvature="0"
     id="path11"
     d="m 32,47 c -0.552,0 -1,-0.447 -1,-1 v -8.999 c 0,-3.309 2.691,-6 6,-6 h 9 c 0.553,0 1,0.448 1,1 0,0.552 -0.447,1 -1,1 h -9 c -2.206,0 -4,1.794 -4,4 V 46 c 0,0.553 -0.448,1 -1,1 z"
     style="opacity:0.6;fill:#ffffff" /><path
     style="fill:#ffffff"
     d="m 27,33.001 h -9 c -0.552,0 -1,-0.448 -1,-1 0,-0.552 0.448,-1 1,-1 h 9 c 2.206,0 4,-1.794 4,-4 v -9 c 0,-0.552 0.448,-1 1,-1 0.552,0 1,0.448 1,1 v 9 c 0,3.309 -2.691,6 -6,6 z"
     id="path13"
     inkscape:connector-curvature="0" /></svg>