<?xml version="1.0" encoding="UTF-8" standalone="no"?>
<!-- Generator: Adobe Illustrator 17.0.1, SVG Export Plug-In . SVG Version: 6.00 Build 0)  -->

<svg
   xmlns:dc="http://purl.org/dc/elements/1.1/"
   xmlns:cc="http://creativecommons.org/ns#"
   xmlns:rdf="http://www.w3.org/1999/02/22-rdf-syntax-ns#"
   xmlns:svg="http://www.w3.org/2000/svg"
   xmlns="http://www.w3.org/2000/svg"
   xmlns:sodipodi="http://sodipodi.sourceforge.net/DTD/sodipodi-0.dtd"
   xmlns:inkscape="http://www.inkscape.org/namespaces/inkscape"
   version="1.1"
   id="Layer_1"
   x="0px"
   y="0px"
   width="64px"
   height="64px"
   viewBox="0 0 64 64"
   style="enable-background:new 0 0 64 64;"
   xml:space="preserve"
   inkscape:version="0.48.4 r9939"
   sodipodi:docname="icon-m-clock.svg"><metadata
     id="metadata13"><rdf:RDF><cc:Work
         rdf:about=""><dc:format>image/svg+xml</dc:format><dc:type
           rdf:resource="http://purl.org/dc/dcmitype/StillImage" /></cc:Work></rdf:RDF></metadata><defs
     id="defs11" /><sodipodi:namedview
     pagecolor="#ffffff"
     bordercolor="#666666"
     borderopacity="1"
     objecttolerance="10"
     gridtolerance="10"
     guidetolerance="10"
     inkscape:pageopacity="0"
     inkscape:pageshadow="2"
     inkscape:window-width="1215"
     inkscape:window-height="776"
     id="namedview9"
     showgrid="false"
     inkscape:zoom="3.6875"
     inkscape:cx="-144"
     inkscape:cy="32"
     inkscape:window-x="65"
     inkscape:window-y="24"
     inkscape:window-maximized="1"
     inkscape:current-layer="Layer_1" /><rect
     y="0"
     x="0"
     height="64"
     width="64"
     style="opacity:1;fill:#000000;fill-opacity:0.50196081000000004"
     id="icon-m-clock_1_" /><path
     inkscape:connector-curvature="0"
     id="path5"
     d="M 32,56.55 C 18.462,56.55 7.449,45.537 7.449,32 7.449,18.462 18.462,7.448 32,7.448 45.537,7.448 56.551,18.462 56.551,32 56.551,45.537 45.537,56.55 32,56.55 z m 0,-47 C 19.622,9.55 9.551,19.621 9.551,32 9.551,44.378 19.621,54.448 32,54.448 44.378,54.448 54.449,44.378 54.449,32 54.449,19.621 44.378,9.55 32,9.55 z"
     style="opacity:0.6;fill:#ffffff" /><path
     inkscape:connector-curvature="0"
     id="path7"
     d="m 42.499,40.079 c -0.192,0 -0.387,-0.056 -0.558,-0.171 l -10.5,-7.08 C 31.165,32.642 31,32.332 31,31.999 V 13.75 c 0,-0.552 0.448,-1 1,-1 0.552,0 1,0.448 1,1 v 17.717 l 10.059,6.783 c 0.458,0.309 0.579,0.931 0.271,1.388 -0.194,0.287 -0.51,0.441 -0.831,0.441 z"
     style="fill:#ffffff" /></svg>