<?xml version="1.0" encoding="UTF-8" standalone="no"?>
<!-- Generator: Adobe Illustrator 17.0.1, SVG Export Plug-In . SVG Version: 6.00 Build 0)  -->

<svg
   xmlns:dc="http://purl.org/dc/elements/1.1/"
   xmlns:cc="http://creativecommons.org/ns#"
   xmlns:rdf="http://www.w3.org/1999/02/22-rdf-syntax-ns#"
   xmlns:svg="http://www.w3.org/2000/svg"
   xmlns="http://www.w3.org/2000/svg"
   xmlns:sodipodi="http://sodipodi.sourceforge.net/DTD/sodipodi-0.dtd"
   xmlns:inkscape="http://www.inkscape.org/namespaces/inkscape"
   version="1.1"
   id="Layer_1"
   x="0px"
   y="0px"
   width="64px"
   height="64px"
   viewBox="0 0 64 64"
   style="enable-background:new 0 0 64 64;"
   xml:space="preserve"
   inkscape:version="0.48.4 r9939"
   sodipodi:docname="icon-m-location.svg"><metadata
     id="metadata13"><rdf:RDF><cc:Work
         rdf:about=""><dc:format>image/svg+xml</dc:format><dc:type
           rdf:resource="http://purl.org/dc/dcmitype/StillImage" /></cc:Work></rdf:RDF></metadata><defs
     id="defs11" /><sodipodi:namedview
     pagecolor="#ffffff"
     bordercolor="#666666"
     borderopacity="1"
     objecttolerance="10"
     gridtolerance="10"
     guidetolerance="10"
     inkscape:pageopacity="0"
     inkscape:pageshadow="2"
     inkscape:window-width="1215"
     inkscape:window-height="776"
     id="namedview9"
     showgrid="false"
     inkscape:zoom="3.6875"
     inkscape:cx="45.5045"
     inkscape:cy="32"
     inkscape:window-x="65"
     inkscape:window-y="24"
     inkscape:window-maximized="1"
     inkscape:current-layer="Layer_1" /><rect
     y="0"
     x="0"
     height="64"
     width="64"
     style="opacity:1;fill:#000000;fill-opacity:0.50196081000000004"
     id="icon-m-location_1_" /><path
     inkscape:connector-curvature="0"
     id="path5"
     d="M 35.846,8.716 C 34.605,8.449 33.321,8.301 32,8.301 c -1.321,0 -2.605,0.148 -3.846,0.416 -8.206,1.766 -14.36,9.057 -14.36,17.791 0,0.768 0.053,1.579 0.146,2.412 0.574,5.175 2.875,11.395 6.238,16.226 0.761,1.093 1.574,2.118 2.437,3.039 4.022,4.765 7.903,8.281 7.903,8.281 0.816,0.738 2.15,0.738 2.966,0 0,0 3.881,-3.516 7.903,-8.281 0.862,-0.922 1.675,-1.946 2.437,-3.039 3.363,-4.831 5.664,-11.051 6.238,-16.226 0.092,-0.833 0.146,-1.644 0.146,-2.412 C 50.207,17.773 44.053,10.482 35.846,8.716 z"
     style="opacity:0.6;fill:#ffffff" /><path
     inkscape:connector-curvature="0"
     id="path7"
     d="M 33.995,17.332 C 33.301,17.182 32.648,17.11 32,17.11 c -0.648,0 -1.302,0.072 -1.995,0.222 -4.259,0.916 -7.352,4.743 -7.37,9.107 -0.001,0.046 -0.003,0.087 -0.003,0.126 0,0.04 0.002,0.08 0.003,0.126 0.018,4.364 3.111,8.191 7.37,9.107 0.693,0.149 1.347,0.222 1.995,0.222 0.648,0 1.301,-0.072 1.995,-0.222 4.259,-0.916 7.351,-4.743 7.37,-9.107 10e-4,-0.046 0.002,-0.086 0.002,-0.126 0,-0.039 -10e-4,-0.08 -0.002,-0.126 -0.019,-4.364 -3.111,-8.191 -7.37,-9.107 z"
     style="fill:#ffffff" /></svg>