<?xml version="1.0" encoding="UTF-8" standalone="no"?>
<!-- Generator: Adobe Illustrator 17.0.1, SVG Export Plug-In . SVG Version: 6.00 Build 0)  -->

<svg
   xmlns:dc="http://purl.org/dc/elements/1.1/"
   xmlns:cc="http://creativecommons.org/ns#"
   xmlns:rdf="http://www.w3.org/1999/02/22-rdf-syntax-ns#"
   xmlns:svg="http://www.w3.org/2000/svg"
   xmlns="http://www.w3.org/2000/svg"
   xmlns:sodipodi="http://sodipodi.sourceforge.net/DTD/sodipodi-0.dtd"
   xmlns:inkscape="http://www.inkscape.org/namespaces/inkscape"
   version="1.1"
   id="Layer_1"
   x="0px"
   y="0px"
   width="64px"
   height="64px"
   viewBox="0 0 64 64"
   style="enable-background:new 0 0 64 64;"
   xml:space="preserve"
   inkscape:version="0.48.4 r9939"
   sodipodi:docname="icon-m-car_no.svg"><metadata
     id="metadata21"><rdf:RDF><cc:Work
         rdf:about=""><dc:format>image/svg+xml</dc:format><dc:type
           rdf:resource="http://purl.org/dc/dcmitype/StillImage" /><dc:title /></cc:Work></rdf:RDF></metadata><defs
     id="defs19" /><sodipodi:namedview
     pagecolor="#ffffff"
     bordercolor="#666666"
     borderopacity="1"
     objecttolerance="10"
     gridtolerance="10"
     guidetolerance="10"
     inkscape:pageopacity="0"
     inkscape:pageshadow="2"
     inkscape:window-width="1215"
     inkscape:window-height="776"
     id="namedview17"
     showgrid="false"
     inkscape:zoom="3.6875"
     inkscape:cx="-26.847458"
     inkscape:cy="32"
     inkscape:window-x="65"
     inkscape:window-y="24"
     inkscape:window-maximized="1"
     inkscape:current-layer="Layer_1" /><rect
     height="64"
     width="64"
     style="opacity:1;fill:#000000;fill-opacity:0.50196081000000004"
     id="icon-m-car_1_"
     x="0"
     y="0" /><path
     inkscape:connector-curvature="0"
     style="opacity:0.6;fill:#ffffff"
     d="m 53.825,52.169 h -5.997 c -1.156,0 -2.097,-0.94 -2.097,-2.096 v -5.225 h 5.51 c 1.461,0 2.662,-1.189 2.678,-2.651 l 2,0.011 0.001,7.865 c 0,1.156 -0.94,2.096 -2.095,2.096 z m -6.094,-5.32 v 3.225 c 0,0.05 0.046,0.096 0.097,0.096 h 5.997 c 0.05,0 0.095,-0.046 0.095,-0.096 V 46 c -0.761,0.535 -1.686,0.85 -2.679,0.85 h -3.51 z"
     id="path7" /><path
     inkscape:connector-curvature="0"
     style="opacity:0.6;fill:#ffffff"
     d="m 16.001,52.169 h -6 c -1.155,0 -2.095,-0.94 -2.095,-2.096 l 0.013,-8.007 0.893,0.137 1.097,-0.007 c 0.017,1.463 1.219,2.652 2.681,2.652 h 5.508 v 5.225 c -10e-4,1.156 -0.941,2.096 -2.097,2.096 z M 9.906,45.996 v 4.077 c 0,0.05 0.045,0.096 0.095,0.096 h 6 c 0.05,0 0.095,-0.046 0.095,-0.096 v -3.225 h -3.508 c -0.995,10e-4 -1.921,-0.315 -2.682,-0.852 z"
     id="path9" /><path
     inkscape:connector-curvature="0"
     style="fill:#ffffff"
     d="M 51.241,46.849 H 12.588 c -2.582,0 -4.683,-2.1 -4.683,-4.681 V 32.085 c 0,-1.002 0.178,-2.288 0.49,-3.593 C 7.298,28.287 6,27.736 6,26.166 6,24.193 8.232,21.782 10.837,21.782 h 0.461 l 2.441,-4.589 c 1.129,-2.12 3.894,-3.781 6.293,-3.781 h 23.763 c 2.401,0 5.165,1.661 6.292,3.781 l 2.442,4.589 h 0.633 c 2.604,0 4.837,2.411 4.837,4.384 0,1.64 -1.384,2.172 -2.56,2.358 0.306,1.29 0.479,2.563 0.479,3.561 v 10.083 c 0.002,2.581 -2.097,4.681 -4.677,4.681 z M 10.837,23.782 C 9.284,23.782 8,25.36 8,26.166 c 0,0.229 0.657,0.404 1.714,0.458 l 1.273,0.064 -0.366,1.221 c -0.449,1.499 -0.716,3.06 -0.716,4.176 v 10.083 c 0,1.479 1.204,2.681 2.683,2.681 h 38.653 c 1.477,0 2.679,-1.202 2.679,-2.681 V 32.085 c 0,-1.12 -0.266,-2.678 -0.711,-4.168 L 52.84,26.683 54.127,26.632 C 55.282,26.586 56,26.407 56,26.166 56,25.36 54.716,23.782 53.163,23.782 h -1.834 l -3.007,-5.65 c -0.771,-1.449 -2.886,-2.72 -4.526,-2.72 H 20.033 c -1.64,0 -3.756,1.271 -4.528,2.721 l -3.006,5.649 h -1.662 z"
     id="path11" /><circle
     sodipodi:ry="3.3269999"
     sodipodi:rx="3.3269999"
     sodipodi:cy="36.067001"
     sodipodi:cx="17.032"
     style="opacity:0.6;fill:#ffffff"
     cx="17.032"
     cy="36.067001"
     r="3.3269999"
     id="circle13" /><circle
     sodipodi:ry="3.3269999"
     sodipodi:rx="3.3269999"
     sodipodi:cy="36.067001"
     sodipodi:cx="46.317001"
     style="opacity:0.6;fill:#ffffff"
     cx="46.317001"
     cy="36.067001"
     r="3.3269999"
     id="circle15" /><path
     style="fill:#ffffff"
     d="m 6.9342404,58.066 c -0.2559975,0 -0.5119951,-0.098 -0.7069932,-0.293 -0.3909963,-0.391 -0.3909963,-1.023 0,-1.414 L 56.358766,6.225 c 0.390997,-0.391 1.022991,-0.391 1.413987,0 0.390996,0.391 0.390996,1.023 0,1.414 L 7.6412336,57.773 C 7.4452355,57.969 7.189238,58.066 6.9342404,58.066 z"
     id="path9-3"
     inkscape:connector-curvature="0" /></svg>