<?xml version="1.0" encoding="UTF-8" standalone="no"?>
<!-- Generator: Adobe Illustrator 17.0.1, SVG Export Plug-In . SVG Version: 6.00 Build 0)  -->

<svg
   xmlns:dc="http://purl.org/dc/elements/1.1/"
   xmlns:cc="http://creativecommons.org/ns#"
   xmlns:rdf="http://www.w3.org/1999/02/22-rdf-syntax-ns#"
   xmlns:svg="http://www.w3.org/2000/svg"
   xmlns="http://www.w3.org/2000/svg"
   xmlns:sodipodi="http://sodipodi.sourceforge.net/DTD/sodipodi-0.dtd"
   xmlns:inkscape="http://www.inkscape.org/namespaces/inkscape"
   version="1.1"
   id="Layer_1"
   x="0px"
   y="0px"
   width="64px"
   height="64px"
   viewBox="0 0 64 64"
   style="enable-background:new 0 0 64 64;"
   xml:space="preserve"
   inkscape:version="0.48.4 r9939"
   sodipodi:docname="icon-m-home.svg"><metadata
     id="metadata13"><rdf:RDF><cc:Work
         rdf:about=""><dc:format>image/svg+xml</dc:format><dc:type
           rdf:resource="http://purl.org/dc/dcmitype/StillImage" /></cc:Work></rdf:RDF></metadata><defs
     id="defs11" /><sodipodi:namedview
     pagecolor="#ffffff"
     bordercolor="#666666"
     borderopacity="1"
     objecttolerance="10"
     gridtolerance="10"
     guidetolerance="10"
     inkscape:pageopacity="0"
     inkscape:pageshadow="2"
     inkscape:window-width="1215"
     inkscape:window-height="776"
     id="namedview9"
     showgrid="false"
     inkscape:zoom="3.6875"
     inkscape:cx="-143.72881"
     inkscape:cy="48.803011"
     inkscape:window-x="65"
     inkscape:window-y="24"
     inkscape:window-maximized="1"
     inkscape:current-layer="Layer_1" /><rect
     y="0"
     x="0"
     height="64"
     width="64"
     style="opacity:1;fill:#000000;fill-opacity:0.50196081000000004"
     id="icon-m-home_1_" /><path
     inkscape:connector-curvature="0"
     id="path5"
     d="M 48.342,53.138 H 15.658 c -2.757,0 -5,-2.243 -5,-5 V 33.333 C 10.658,33.152 10.507,33 10.328,33 L 7,33 C 5.904,33 5.572,32.287 5.496,32.068 5.18,31.153 5.845,30.066 7.529,28.743 L 28.237,12.48 c 1.012,-0.795 2.349,-1.232 3.764,-1.232 1.415,0 2.752,0.438 3.764,1.233 l 20.708,16.263 c 1.684,1.323 2.349,2.411 2.032,3.325 C 58.428,32.287 58.097,33 57,33 l -3.329,0 c -0.179,0 -0.329,0.153 -0.329,0.333 v 14.805 c 0,2.757 -2.243,5 -5,5 z M 10.329,31 c 1.285,0 2.33,1.047 2.33,2.333 v 14.805 c 0,1.654 1.346,3 3,3 h 32.684 c 1.654,0 3,-1.346 3,-3 V 33.333 C 51.343,32.046 52.388,31 53.672,31 l 2.351,0 C 55.827,30.805 55.57,30.576 55.238,30.315 L 34.528,14.053 c -1.305,-1.025 -3.753,-1.025 -5.057,0 L 8.764,30.316 C 8.433,30.576 8.176,30.805 7.98,30.999 L 10.329,31 z"
     style="fill:#ffffff" /><path
     inkscape:connector-curvature="0"
     id="path7"
     d="m 32,44.36 c -4.51,0 -8.18,-3.67 -8.18,-8.181 0,-4.51 3.669,-8.18 8.18,-8.18 4.511,0 8.18,3.669 8.18,8.18 0,5.047 -3.134,8.181 -8.18,8.181 z M 32,30 c -3.408,0 -6.18,2.772 -6.18,6.18 0,3.408 2.772,6.181 6.18,6.181 2.308,0 6.18,-0.803 6.18,-6.181 C 38.18,32.772 35.407,30 32,30 z"
     style="opacity:0.6;fill:#ffffff" /></svg>