<?xml version="1.0" encoding="UTF-8" standalone="no"?>
<!-- Generator: Adobe Illustrator 17.0.1, SVG Export Plug-In . SVG Version: 6.00 Build 0)  -->

<svg
   xmlns:dc="http://purl.org/dc/elements/1.1/"
   xmlns:cc="http://creativecommons.org/ns#"
   xmlns:rdf="http://www.w3.org/1999/02/22-rdf-syntax-ns#"
   xmlns:svg="http://www.w3.org/2000/svg"
   xmlns="http://www.w3.org/2000/svg"
   xmlns:sodipodi="http://sodipodi.sourceforge.net/DTD/sodipodi-0.dtd"
   xmlns:inkscape="http://www.inkscape.org/namespaces/inkscape"
   version="1.1"
   id="Layer_1"
   x="0px"
   y="0px"
   width="64px"
   height="64px"
   viewBox="0 0 64 64"
   style="enable-background:new 0 0 64 64;"
   xml:space="preserve"
   inkscape:version="0.48.4 r9939"
   sodipodi:docname="icon-m-whereami.svg"><metadata
     id="metadata13"><rdf:RDF><cc:Work
         rdf:about=""><dc:format>image/svg+xml</dc:format><dc:type
           rdf:resource="http://purl.org/dc/dcmitype/StillImage" /></cc:Work></rdf:RDF></metadata><defs
     id="defs11" /><sodipodi:namedview
     pagecolor="#ffffff"
     bordercolor="#666666"
     borderopacity="1"
     objecttolerance="10"
     gridtolerance="10"
     guidetolerance="10"
     inkscape:pageopacity="0"
     inkscape:pageshadow="2"
     inkscape:window-width="1215"
     inkscape:window-height="776"
     id="namedview9"
     showgrid="false"
     inkscape:zoom="3.6875"
     inkscape:cx="23.050847"
     inkscape:cy="21.152542"
     inkscape:window-x="65"
     inkscape:window-y="24"
     inkscape:window-maximized="1"
     inkscape:current-layer="Layer_1" /><rect
     y="0"
     x="0"
     height="64"
     width="64"
     style="opacity:1;fill:#000000;fill-opacity:0.50196081000000004"
     id="icon-m-whereami_1_" /><path
     inkscape:connector-curvature="0"
     id="path5"
     d="m 32,58.019 c -0.81,0 -1.575,-0.288 -2.154,-0.811 C 29.806,57.171 25.868,53.59 21.849,48.83 21.02,47.945 20.17,46.885 19.356,45.717 16.01,40.911 13.553,34.517 12.944,29.03 c -0.101,-0.909 -0.151,-1.757 -0.151,-2.522 0,-8.986 6.372,-16.879 15.15,-18.769 2.702,-0.581 5.415,-0.58 8.113,0 8.779,1.889 15.15,9.783 15.15,18.769 0,0.771 -0.05,1.596 -0.151,2.521 -0.609,5.488 -3.065,11.882 -6.412,16.688 -0.815,1.17 -1.665,2.23 -2.526,3.151 -3.985,4.723 -7.924,8.303 -7.964,8.339 C 33.575,57.73 32.81,58.019 32,58.019 z M 32,9.301 c -1.2,0 -2.423,0.132 -3.636,0.393 -7.863,1.692 -13.571,8.763 -13.571,16.813 0,0.692 0.047,1.466 0.14,2.302 0.574,5.175 2.898,11.216 6.065,15.765 0.759,1.089 1.548,2.074 2.346,2.927 3.967,4.698 7.806,8.189 7.844,8.224 0.413,0.373 1.209,0.374 1.623,0 0.038,-0.034 3.882,-3.531 7.812,-8.186 0.829,-0.889 1.619,-1.874 2.38,-2.966 3.166,-4.548 5.49,-10.589 6.064,-15.764 0.093,-0.839 0.14,-1.614 0.14,-2.302 0,-8.05 -5.707,-15.121 -13.57,-16.813 C 34.424,9.433 33.2,9.301 32,9.301 z"
     style="fill:#ffffff" /><path
     inkscape:connector-curvature="0"
     id="path7"
     d="M 33.995,17.332 C 33.301,17.182 32.648,17.11 32,17.11 c -0.648,0 -1.302,0.072 -1.995,0.222 -4.259,0.916 -7.352,4.743 -7.37,9.107 -0.001,0.046 -0.003,0.087 -0.003,0.126 0,0.04 0.002,0.08 0.003,0.126 0.018,4.364 3.111,8.191 7.37,9.107 0.693,0.149 1.347,0.222 1.995,0.222 0.648,0 1.301,-0.072 1.995,-0.222 4.259,-0.916 7.351,-4.743 7.37,-9.107 10e-4,-0.046 0.002,-0.086 0.002,-0.126 0,-0.039 -10e-4,-0.08 -0.002,-0.126 -0.019,-4.364 -3.111,-8.191 -7.37,-9.107 z"
     style="opacity:0.6;fill:#ffffff" /></svg>